<?xml version="1.0" encoding="utf-8"?>
<!-- Generator: Adobe Illustrator 22.0.1, SVG Export Plug-In . SVG Version: 6.00 Build 0)  -->
<svg version="1.1" id="Layer_1" xmlns="http://www.w3.org/2000/svg" xmlns:xlink="http://www.w3.org/1999/xlink" x="0px" y="0px"
	 viewBox="0 0 1025 1066" style="enable-background:new 0 0 1025 1066;" xml:space="preserve">
<style type="text/css">
	.st0{fill:url(#SVGID_1_);}
	.st1{fill:#F5F5F5;}
	.st2{opacity:0.5;fill:url(#SVGID_2_);enable-background:new    ;}
	.st3{fill:#FFFFFF;}
	.st4{fill:#A1887F;}
	.st5{opacity:0.2;fill:#FFFFFF;enable-background:new    ;}
	.st6{fill:url(#SVGID_3_);}
	.st7{fill:url(#SVGID_4_);}
	.st8{fill:#E0E0E0;}
	.st9{opacity:0.3;fill:#294ACE;enable-background:new    ;}
	.st10{fill:url(#SVGID_5_);}
	.st11{fill:#294ACE;}
	.st12{fill:#BDBDBD;}
	.st13{fill:#69F0AE;}
	.st14{opacity:0.5;fill:url(#SVGID_6_);enable-background:new    ;}
	.st15{opacity:0.3;fill:#FFFFFF;enable-background:new    ;}
	.st16{opacity:0.5;}
	.st17{fill:#47E6B1;}
	.st18{opacity:0.5;fill:#4D8AF0;enable-background:new    ;}
	.st19{opacity:0.5;fill:#F55F44;enable-background:new    ;}
	.st20{opacity:0.5;fill:#47E6B1;enable-background:new    ;}
	.st21{opacity:0.5;fill:url(#SVGID_7_);enable-background:new    ;}
	.st22{fill:#DBDBDB;}
	.st23{opacity:0.3;fill:#3AD29F;enable-background:new    ;}
	.st24{opacity:0.5;fill:url(#SVGID_8_);enable-background:new    ;}
	.st25{fill:#4D8AF0;}
	.st26{opacity:0.3;fill:#4D8AF0;enable-background:new    ;}
	.st27{opacity:0.5;fill:url(#SVGID_9_);enable-background:new    ;}
	.st28{fill:#FF5252;}
	.st29{opacity:0.5;fill:#FF5252;enable-background:new    ;}
	.st30{opacity:0.3;fill:#FF5252;enable-background:new    ;}
	.st31{opacity:0.5;fill:url(#SVGID_10_);enable-background:new    ;}
	.st32{opacity:0.5;fill:#69F0AE;enable-background:new    ;}
	.st33{opacity:0.3;fill:#69F0AE;enable-background:new    ;}
	.st34{opacity:0.5;fill:url(#SVGID_11_);enable-background:new    ;}
	.st35{opacity:0.5;fill:#294ACE;enable-background:new    ;}
	.st36{fill:#041B63;}
</style>
<g>
	<g transform="translate(-1 199)">
		
			<linearGradient id="SVGID_1_" gradientUnits="userSpaceOnUse" x1="625.5188" y1="143.3335" x2="625.5188" y2="142.3335" gradientTransform="matrix(210 0 0 210 -130637.4531 -29418.2422)">
			<stop  offset="0" style="stop-color:#808080;stop-opacity:0.25"/>
			<stop  offset="0.54" style="stop-color:#808080;stop-opacity:0.12"/>
			<stop  offset="1" style="stop-color:#808080;stop-opacity:0.1"/>
		</linearGradient>
		<circle class="st0" cx="721.5" cy="576.8" r="105"/>
		<circle class="st1" cx="721.5" cy="576.8" r="100"/>
		
			<linearGradient id="SVGID_2_" gradientUnits="userSpaceOnUse" x1="624.2209" y1="722.9901" x2="624.2209" y2="597.9901" gradientTransform="matrix(146.2878 0 0 125.0025 -90604.3516 -16966.0938)">
			<stop  offset="0" style="stop-color:#808080;stop-opacity:0.25"/>
			<stop  offset="0.54" style="stop-color:#808080;stop-opacity:0.12"/>
			<stop  offset="1" style="stop-color:#808080;stop-opacity:0.1"/>
		</linearGradient>
		<path class="st2" d="M724.3,514.3c-32.8-1.1-60.8,23.2-64.3,55.8h-18c-2,0-3.6,1.6-3.6,3.6l0,0v6c0,2,1.6,3.6,3.6,3.6h18
			c3.5,33.2,32.5,57.7,65.9,55.8c33.3-2,59.2-29.8,58.8-63.2C784.3,542.6,757.7,515.5,724.3,514.3z"/>
		<path class="st3" d="M723.5,518c-30.8-1-57.1,21.9-60.4,52.5h-17.4c-1.6,0-2.9,1.3-2.9,2.9v6.7c0,1.6,1.3,2.9,2.9,2.9h17.4
			c3.4,31.2,30.6,54.2,61.9,52.4c31.3-1.9,55.6-28,55.2-59.4S754.9,519.1,723.5,518L723.5,518L723.5,518z"/>
		<circle class="st4" cx="721.5" cy="576.8" r="41.3"/>
		<path class="st5" d="M742.8,556.8c0,0,11.8,18.3,8.4,32.5C751.2,589.3,764.6,566.9,742.8,556.8z"/>
		<circle class="st5" cx="747.8" cy="599.3" r="3.8"/>
		
			<linearGradient id="SVGID_3_" gradientUnits="userSpaceOnUse" x1="626.4338" y1="571.4198" x2="626.4338" y2="262.6998" gradientTransform="matrix(208.0113 -47.0681 68.1337 301.1077 -139951.625 -13391.1514)">
			<stop  offset="0" style="stop-color:#808080;stop-opacity:0.25"/>
			<stop  offset="0.54" style="stop-color:#808080;stop-opacity:0.12"/>
			<stop  offset="1" style="stop-color:#808080;stop-opacity:0.1"/>
		</linearGradient>
		<path class="st6" d="M1,241.8l208-47.1l68.1,301.1l-208,47.1L1,241.8z"/>
		
			<linearGradient id="SVGID_4_" gradientUnits="userSpaceOnUse" x1="626.4338" y1="571.4198" x2="626.4338" y2="262.6998" gradientTransform="matrix(208.0113 -47.0681 68.1337 301.1077 -139736.3125 -13439.8545)">
			<stop  offset="0" style="stop-color:#808080;stop-opacity:0.25"/>
			<stop  offset="0.54" style="stop-color:#808080;stop-opacity:0.12"/>
			<stop  offset="1" style="stop-color:#808080;stop-opacity:0.1"/>
		</linearGradient>
		<path class="st7" d="M216.3,193.1l208-47.1l68.1,301.1l-208,47.1L216.3,193.1z"/>
		<path class="st3" d="M5.2,245.6L209,199.9l66.4,296L71.6,541.6L5.2,245.6z"/>
		<path class="st1" d="M218.6,196.4l202.9-45.9L488.1,445l-202.8,45.9L218.6,196.4z"/>
		<path class="st8" d="M210.5,238.7l21.8-4.9l0.7,2.9l-21.8,4.9L210.5,238.7z M212.9,248.9l21.8-4.9l0.7,2.9l-21.8,4.9L212.9,248.9z
			 M215.2,259.1l21.8-4.9l0.7,2.9l-21.8,4.9L215.2,259.1z M217.5,269.3l21.8-4.9l0.7,2.9l-21.8,4.9L217.5,269.3z M219.8,279.5
			l21.8-4.9l0.7,2.9l-21.8,4.9L219.8,279.5z M222.1,289.6l21.8-4.9l0.7,2.9l-21.8,4.9L222.1,289.6z M224.4,299.8l21.8-4.9l0.7,2.9
			l-21.8,4.9L224.4,299.8z M226.7,310l21.8-4.9l0.7,2.9l-21.8,4.9L226.7,310z M229,320.2l21.8-4.9l0.7,2.9l-21.8,4.9L229,320.2z
			 M231.3,330.4l21.8-4.9l0.7,2.9l-21.8,4.9L231.3,330.4z M233.6,340.5l21.8-4.9l0.7,2.9l-21.8,4.9L233.6,340.5z M235.9,350.7
			l21.8-4.9l0.7,2.9l-21.8,4.9L235.9,350.7z M238.2,360.9L260,356l0.7,2.9l-21.8,4.9L238.2,360.9z M240.5,371.1l21.8-4.9l0.7,2.9
			l-21.8,4.9L240.5,371.1z M242.8,381.3l21.8-4.9l0.7,2.9l-21.8,4.9L242.8,381.3z M245.1,391.5l21.8-4.9l0.7,2.9l-21.8,4.9
			L245.1,391.5z M247.4,401.6l21.8-4.9l0.7,2.9l-21.8,4.9L247.4,401.6z M249.7,411.8l21.8-4.9l0.7,2.9l-21.8,4.9L249.7,411.8z
			 M252,422l21.8-4.9l0.7,2.9l-21.8,4.9L252,422z M254.3,432.2l21.8-4.9l0.7,2.9l-21.8,4.9L254.3,432.2z M256.6,442.4l21.8-4.9
			l0.7,2.9l-21.8,4.9L256.6,442.4z M258.9,452.6l21.8-4.9l0.7,2.9l-21.8,4.9L258.9,452.6z M261.2,462.7l21.8-4.9l0.7,2.9l-21.8,4.9
			L261.2,462.7z M263.5,472.9l21.8-4.9l0.7,2.9l-21.8,4.9L263.5,472.9z"/>
		<path class="st9" d="M48.1,268.5l121.8-27.6l4.6,20.3L52.7,288.8L48.1,268.5z M38.9,322.1l162.4-36.7l1.1,5.1L40.1,327.2
			L38.9,322.1z M41.6,334L204,297.2l1.1,5.1L42.8,339L41.6,334z M44.3,345.8l162.4-36.7l1.1,5.1L45.5,350.9L44.3,345.8z M47,357.7
			l77.8-17.6l1.1,5.1l-77.8,17.6L47,357.7z M49.7,369.5l89.7-20.3l1.1,5.1l-89.7,20.3L49.7,369.5z M52.3,381.3l162.4-36.7l1.1,5.1
			L53.5,386.4L52.3,381.3z M55,393.2l162.4-36.7l1.1,5.1L56.2,398.3L55,393.2z M57.7,405l150.6-34l1.1,5.1l-150.6,34L57.7,405z
			 M60.4,416.9l162.4-36.7l1.1,5.1L61.5,421.9L60.4,416.9z M63.1,428.7l84.6-19.1l1.1,5.1l-84.6,19.1L63.1,428.7z M286,392.5
			l89.7-20.3l1.1,5.1l-89.7,20.3L286,392.5z M288.7,404.3l162.4-36.7l1.1,5.1l-162.4,36.7L288.7,404.3z M291.4,416.2l162.4-36.7
			l1.1,5.1l-162.4,36.7L291.4,416.2z M294.1,428l150.6-34.1l1.1,5.1l-150.6,34.1L294.1,428z M296.7,439.8l162.4-36.7l1.1,5.1
			l-162.4,36.7L296.7,439.8z M299.4,451.7l84.6-19.1l1.1,5.1l-84.6,19.1L299.4,451.7z M128.5,435.2l98.1-22.2l15.3,67.7l-98.1,22.2
			L128.5,435.2z M244.7,209.8l98.1-22.2l15.3,67.7L260,277.5L244.7,209.8z M340.7,280.5l98.1-22.2l15.3,67.7L356,348.2L340.7,280.5z
			"/>
		
			<linearGradient id="SVGID_5_" gradientUnits="userSpaceOnUse" x1="626.434" y1="656.4198" x2="626.434" y2="347.6998" gradientTransform="matrix(208.0113 -47.0681 68.1337 301.1077 -139660.0156 -13369.9717)">
			<stop  offset="0" style="stop-color:#808080;stop-opacity:0.25"/>
			<stop  offset="0.54" style="stop-color:#808080;stop-opacity:0.12"/>
			<stop  offset="1" style="stop-color:#808080;stop-opacity:0.1"/>
		</linearGradient>
		<path class="st10" d="M305.7,260l181.8-41.1c7.2-1.6,14.4,2.9,16.1,10.1l62.2,274.9c1.6,7.2-2.9,14.4-10.1,16.1l-181.8,41.1
			c-7.2,1.6-14.4-2.9-16.1-10.1l-62.2-274.9C293.9,268.8,298.5,261.7,305.7,260z"/>
		<path class="st11" d="M308.1,263.3l176.6-40c7.2-1.6,14.4,2.9,16.1,10.1l60.7,268.3c1.6,7.2-2.9,14.4-10.1,16.1l-176.6,40
			c-7.2,1.6-14.4-2.9-16.1-10.1L298,279.4C296.3,272.1,300.8,264.9,308.1,263.3z"/>
		<path class="st12" d="M289.8,308l21.8-4.9l0.7,2.9l-21.8,4.9L289.8,308z M292.1,318.1l21.8-4.9l0.7,2.9l-21.8,4.9L292.1,318.1z
			 M294.4,328.3l21.8-4.9l0.7,2.9l-21.8,4.9L294.4,328.3z M296.7,338.5l21.8-4.9l0.7,2.9l-21.8,4.9L296.7,338.5z M299,348.7
			l21.8-4.9l0.7,2.9l-21.8,4.9L299,348.7z M301.3,358.9l21.8-4.9l0.7,2.9l-21.8,4.9L301.3,358.9z M303.6,369l21.8-4.9l0.7,2.9
			l-21.8,4.9L303.6,369z M305.9,379.2l21.8-4.9l0.7,2.9l-21.8,4.9L305.9,379.2z M308.2,389.4l21.8-4.9l0.7,2.9l-21.8,4.9
			L308.2,389.4z M310.5,399.6l21.8-4.9l0.7,2.9l-21.8,4.9L310.5,399.6z M312.8,409.8l21.8-4.9l0.7,2.9l-21.8,4.9L312.8,409.8z
			 M315.1,420l21.8-4.9l0.7,2.9l-21.8,4.9L315.1,420z M317.4,430.1l21.8-4.9l0.7,2.9l-21.8,4.9L317.4,430.1z M319.7,440.3l21.8-4.9
			l0.7,2.9l-21.8,4.9L319.7,440.3z M322,450.5l21.8-4.9l0.7,2.9l-21.8,4.9L322,450.5z M324.3,460.7l21.8-4.9l0.7,2.9l-21.8,4.9
			L324.3,460.7z M326.7,470.9l21.8-4.9l0.7,2.9l-21.8,4.9L326.7,470.9z M329,481.1l21.8-4.9l0.7,2.9l-21.8,4.9L329,481.1z
			 M331.3,491.2l21.8-4.9l0.7,2.9l-21.8,4.9L331.3,491.2z M333.6,501.4l21.8-4.9l0.7,2.9l-21.8,4.9L333.6,501.4z M335.9,511.6
			l21.8-4.9l0.7,2.9l-21.8,4.9L335.9,511.6z M338.2,521.8l21.8-4.9l0.7,2.9l-21.8,4.9L338.2,521.8z M340.5,532l21.8-4.9l0.7,2.9
			l-21.8,4.9L340.5,532z M342.8,542.1l21.8-4.9l0.7,2.9l-21.8,4.9L342.8,542.1z"/>
		<path class="st13" d="M171.5,519.4l9.8-2.2l20.1,88.8l-9.8,2.2L171.5,519.4z"/>
		
			<linearGradient id="SVGID_6_" gradientUnits="userSpaceOnUse" x1="836.2407" y1="127.1706" x2="854.2407" y2="127.1706" gradientTransform="matrix(17.5562 -3.9726 10.1521 44.8657 -11722.1025 -2801.406)">
			<stop  offset="0" style="stop-color:#808080;stop-opacity:0.25"/>
			<stop  offset="0.54" style="stop-color:#808080;stop-opacity:0.12"/>
			<stop  offset="1" style="stop-color:#808080;stop-opacity:0.1"/>
		</linearGradient>
		<path class="st14" d="M159.4,484.2l17.6-4l10.2,44.9l-17.6,4L159.4,484.2z"/>
		<path class="st13" d="M161.3,485.8l14.6-3.3l9.5,41.9l-14.6,3.3L161.3,485.8z"/>
		<path class="st15" d="M161.3,485.8l14.6-3.3l9.5,41.9l-14.6,3.3L161.3,485.8z"/>
		<path class="st13" d="M193.3,606.7l5.9-1.3l1.3,5.9l-5.9,1.3L193.3,606.7z M164.8,494.2l-3.9,0.9l-1.9,0.4l0.4,2l3.8,16.6l1.9-0.4
			l-3.8-16.6l3.9-0.9L164.8,494.2z"/>
		<path class="st15" d="M164.8,494.2l-3.9,0.9l-1.9,0.4l0.4,2l3.8,16.6l1.9-0.4l-3.8-16.6l3.9-0.9L164.8,494.2z"/>
		<g class="st16">
			<path class="st17" d="M184.6,800.8h3v17h-3V800.8z"/>
			<path class="st17" d="M194.6,807.8v3h-17v-3H194.6z"/>
		</g>
		<g class="st16">
			<path class="st17" d="M727.5,178.8h3v17h-3V178.8z"/>
			<path class="st17" d="M737.5,185.8v3h-17v-3H737.5z"/>
		</g>
		<g class="st16">
			<path class="st17" d="M637.5,395.8h3v17h-3V395.8z"/>
			<path class="st17" d="M647.5,402.8v3h-17v-3H647.5z"/>
		</g>
		<g class="st16">
			<path class="st17" d="M895.2,434.8h3v17h-3V434.8z"/>
			<path class="st17" d="M905.2,441.8v3h-17v-3H905.2z"/>
		</g>
		<path class="st18" d="M359.2,799.1c-1.7-0.8-2.6-2.7-2-4.4c0-0.1,0.1-0.3,0.1-0.4c0.1-1-0.7-1.9-1.7-2c-0.6,0-1.2,0.2-1.6,0.7
			c-0.1,0.1-0.1,0.2-0.2,0.4c-0.8,1.7-2.7,2.6-4.4,2c-0.1,0-0.3-0.1-0.4-0.1c-1-0.1-1.9,0.7-2,1.7c0,0.6,0.2,1.2,0.7,1.6
			c0.1,0.1,0.2,0.1,0.4,0.2c1.7,0.8,2.6,2.7,2,4.4c0,0.1-0.1,0.3-0.1,0.4c-0.1,1,0.7,1.9,1.7,2c0.6,0.1,1.3-0.2,1.7-0.8
			c0.1-0.1,0.1-0.2,0.2-0.4c0.8-1.7,2.7-2.6,4.4-2c0.1,0,0.3,0.1,0.4,0.1c1,0.1,1.9-0.7,2-1.7c0-0.6-0.2-1.2-0.7-1.6
			C359.5,799.2,359.4,799.2,359.2,799.1L359.2,799.1z M542.2,811.1c-1.7-0.8-2.6-2.7-2-4.4c0-0.1,0.1-0.3,0.1-0.4
			c0.1-1-0.7-1.9-1.7-2c-0.6,0-1.2,0.2-1.6,0.7c-0.1,0.1-0.1,0.2-0.2,0.4c-0.8,1.7-2.7,2.6-4.4,2c-0.1,0-0.3-0.1-0.4-0.1
			c-1-0.1-1.9,0.7-2,1.7c0,0.6,0.2,1.2,0.7,1.6c0.1,0.1,0.2,0.1,0.4,0.2c1.7,0.8,2.6,2.7,2,4.4c0,0.1-0.1,0.3-0.1,0.4
			c-0.1,1,0.7,1.9,1.7,2c0.6,0.1,1.3-0.2,1.7-0.8c0.1-0.1,0.1-0.2,0.2-0.4c0.8-1.7,2.7-2.6,4.4-2c0.1,0,0.3,0.1,0.4,0.1
			c1,0.1,1.9-0.7,2-1.7c0-0.6-0.2-1.2-0.7-1.6C542.5,811.2,542.4,811.2,542.2,811.1z M761.2,380.1c-1.7-0.8-2.6-2.7-2-4.4
			c0-0.1,0.1-0.3,0.1-0.4c0.1-1-0.7-1.9-1.7-2c-0.6,0-1.2,0.2-1.6,0.7c-0.1,0.1-0.1,0.2-0.2,0.4c-0.8,1.7-2.7,2.6-4.4,2
			c-0.1,0-0.3-0.1-0.4-0.1c-1-0.1-1.9,0.7-2,1.7c0,0.6,0.2,1.2,0.7,1.6c0.1,0.1,0.2,0.1,0.4,0.2c1.7,0.8,2.6,2.7,2,4.4
			c0,0.1-0.1,0.3-0.1,0.4c-0.1,1,0.7,1.9,1.7,2c0.6,0.1,1.3-0.2,1.7-0.8c0.1-0.1,0.1-0.2,0.2-0.4c0.8-1.7,2.7-2.6,4.4-2
			c0.1,0,0.3,0.1,0.4,0.1c1,0.1,1.9-0.7,2-1.7c0-0.6-0.2-1.2-0.7-1.6C761.5,380.2,761.4,380.2,761.2,380.1L761.2,380.1z
			 M913.2,541.1c-1.7-0.8-2.6-2.7-2-4.4c0-0.1,0.1-0.3,0.1-0.4c0.1-1-0.7-1.9-1.7-2c-0.6,0-1.2,0.2-1.6,0.7
			c-0.1,0.1-0.1,0.2-0.2,0.4c-0.8,1.7-2.7,2.6-4.4,2c-0.1,0-0.3-0.1-0.4-0.1c-1-0.1-1.9,0.7-2,1.7c0,0.6,0.2,1.2,0.7,1.6
			c0.1,0.1,0.2,0.1,0.4,0.2c1.7,0.8,2.6,2.7,2,4.4c0,0.1-0.1,0.3-0.1,0.4c-0.1,1,0.7,1.9,1.7,2c0.6,0.1,1.3-0.2,1.7-0.8
			c0.1-0.1,0.1-0.2,0.2-0.4c0.8-1.7,2.7-2.6,4.4-2c0.1,0,0.3,0.1,0.4,0.1c1,0.1,1.9-0.7,2-1.7c0-0.6-0.2-1.2-0.7-1.6
			C913.5,541.2,913.4,541.2,913.2,541.1L913.2,541.1z"/>
		<circle class="st19" cx="106.6" cy="745.8" r="6"/>
		<circle class="st18" cx="524.5" cy="196.8" r="6"/>
		<circle class="st20" cx="499.5" cy="635.8" r="6"/>
		<circle class="st19" cx="845.5" cy="785.8" r="6"/>
		
			<linearGradient id="SVGID_7_" gradientUnits="userSpaceOnUse" x1="615.1211" y1="522.9117" x2="627.4781" y2="213.9117" gradientTransform="matrix(85.3479 -286.1115 158.6037 47.312 -75345.4141 173977.7031)">
			<stop  offset="0" style="stop-color:#808080;stop-opacity:0.25"/>
			<stop  offset="0.54" style="stop-color:#808080;stop-opacity:0.12"/>
			<stop  offset="1" style="stop-color:#808080;stop-opacity:0.1"/>
		</linearGradient>
		<path class="st21" d="M785,431.2l81.8-274.1c1-3.3,4.5-5.2,7.8-4.2l146.6,43.7c3.3,1,5.2,4.5,4.2,7.8l0,0l-81.8,274.1
			c-1,3.3-4.5,5.2-7.8,4.2L789.2,439C785.9,438.1,784,434.6,785,431.2L785,431.2z"/>
		<path class="st3" d="M883.9,163.4l128.5,38.8c7.2,2.2,11.3,9.8,9.1,17L945,472.1c-2.2,7.2-9.8,11.3-17,9.1l-128.5-38.8
			c-7.2-2.2-11.3-9.8-9.1-17l76.4-252.9C869,165.3,876.6,161.2,883.9,163.4z"/>
		<path class="st8" d="M983.5,197.1c-2.7,5.8-9.3,8.8-15.5,7l-53.3-16c-6.2-1.9-10.1-7.9-9.2-14.3l-28.2-8.4c-3.2-1-6.6,0.9-7.6,4.1
			l-75.5,252.8c-1,3.2,0.9,6.6,4.1,7.6l134.8,40.2c3.2,1,6.6-0.9,7.6-4.1l75.4-252.8c1-3.2-0.9-6.6-4.1-7.6
			C1012.2,205.7,983.5,197.1,983.5,197.1z"/>
		<path class="st22" d="M926.2,183.8l32.4,9.2c0.6,0.2,0.9,0.8,0.8,1.4l0,0c-0.2,0.6-0.8,0.9-1.4,0.8l-32.4-9.2
			c-0.6-0.2-0.9-0.8-0.8-1.4l0,0C925,184,925.6,183.6,926.2,183.8z"/>
		
			<ellipse transform="matrix(0.2738 -0.9618 0.9618 0.2738 513.1518 1072.2828)" class="st22" cx="966.6" cy="196.3" rx="1.3" ry="1.3"/>
		<path class="st3" d="M872.6,215.4l42.4,11.7l-10.1,36.6L862.5,252L872.6,215.4z"/>
		<path class="st9" d="M858,268.4l42.4,11.7l-10.1,36.6L847.9,305L858,268.4z"/>
		<path class="st3" d="M843.4,321.5l42.4,11.7l-10.1,36.6l-42.4-11.7L843.4,321.5z"/>
		<path class="st23" d="M828.8,374.5l42.4,11.7l-10.1,36.6l-42.4-11.7L828.8,374.5z"/>
		<path class="st3" d="M923.2,238.7l55.9,15.4L978,258l-55.9-15.4L923.2,238.7z M920,250.3l55.9,15.4l-1.1,3.9L919,254.1L920,250.3z
			 M908.9,290.8l55.9,15.4l-1.1,3.9l-55.9-15.4L908.9,290.8z M905.7,302.3l55.9,15.4l-1.1,3.9l-55.9-15.4L905.7,302.3z M894.5,342.8
			l55.9,15.4l-1.1,3.9l-55.9-15.4L894.5,342.8z M891.3,354.4l55.9,15.4l-1.1,3.9l-55.9-15.4L891.3,354.4z M880.2,394.9l55.9,15.4
			l-1.1,3.9l-55.9-15.4L880.2,394.9z M877,406.4l55.9,15.4l-1.1,3.9l-55.9-15.4L877,406.4z"/>
		
			<linearGradient id="SVGID_8_" gradientUnits="userSpaceOnUse" x1="629.6479" y1="888.366" x2="629.6479" y2="684.406" gradientTransform="matrix(123.4274 -162.3741 49.6453 37.7375 -83836.2109 98059.7109)">
			<stop  offset="0" style="stop-color:#808080;stop-opacity:0.25"/>
			<stop  offset="0.54" style="stop-color:#808080;stop-opacity:0.12"/>
			<stop  offset="1" style="stop-color:#808080;stop-opacity:0.1"/>
		</linearGradient>
		<path class="st24" d="M298.4,828.5l123.4-162.4l49.6,37.7L348.1,866.2L298.4,828.5z"/>
		<path class="st8" d="M422.7,668.5l47.2,35.9L348.1,864.5l-47.2-35.9L422.7,668.5z"/>
		<path class="st25" d="M427.7,676.3l33.4,25.4l-25.4,33.4l-33.4-25.4L427.7,676.3z"/>
		<path class="st18" d="M397.1,716.6l33.4,25.4l-25.4,33.4L371.7,750L397.1,716.6z"/>
		<path class="st26" d="M366.5,756.9l33.4,25.4l-25.4,33.4l-33.4-25.4L366.5,756.9z"/>
		
			<linearGradient id="SVGID_9_" gradientUnits="userSpaceOnUse" x1="631.0873" y1="954.3931" x2="631.0873" y2="751.1932" gradientTransform="matrix(65.82 -192.2445 58.9979 20.1995 -49035.6992 119395.7578)">
			<stop  offset="0" style="stop-color:#808080;stop-opacity:0.25"/>
			<stop  offset="0.54" style="stop-color:#808080;stop-opacity:0.12"/>
			<stop  offset="1" style="stop-color:#808080;stop-opacity:0.1"/>
		</linearGradient>
		<path class="st27" d="M287,845.3l65.8-192.2l59,20.2L346,865.5L287,845.3z"/>
		<path class="st1" d="M354.2,655l56.1,19.2l-64.9,189.7l-56.1-19.2L354.2,655z"/>
		<path class="st28" d="M361.4,660.9l39.6,13.6l-13.6,39.7l-39.6-13.6L361.4,660.9z"/>
		<path class="st29" d="M345.1,708.8l39.6,13.6L371.1,762l-39.6-13.6L345.1,708.8z"/>
		<path class="st30" d="M328.7,756.6l39.6,13.6l-13.6,39.7l-39.6-13.6L328.7,756.6z"/>
		
			<linearGradient id="SVGID_10_" gradientUnits="userSpaceOnUse" x1="631.8735" y1="942.9031" x2="631.8735" y2="739.7037" gradientTransform="matrix(25.4677 -201.5977 61.8683 7.8158 -24113.9727 127088.3594)">
			<stop  offset="0" style="stop-color:#808080;stop-opacity:0.25"/>
			<stop  offset="0.54" style="stop-color:#808080;stop-opacity:0.12"/>
			<stop  offset="1" style="stop-color:#808080;stop-opacity:0.1"/>
		</linearGradient>
		<path class="st31" d="M286.5,856.1L312,654.5l61.9,7.8l-25.5,201.6L286.5,856.1z"/>
		<path class="st1" d="M313.9,656.1l58.8,7.4l-25.1,198.9l-58.8-7.4L313.9,656.1z"/>
		<path class="st13" d="M322.1,660.5l41.6,5.3l-5.3,41.6l-41.6-5.3L322.1,660.5z"/>
		<path class="st32" d="M315.8,710.7l41.6,5.3l-5.3,41.6l-41.6-5.3L315.8,710.7z"/>
		<path class="st33" d="M309.5,760.9l41.6,5.3l-5.3,41.6l-41.6-5.3L309.5,760.9z"/>
		
			<linearGradient id="SVGID_11_" gradientUnits="userSpaceOnUse" x1="618.4622" y1="861.0706" x2="618.4622" y2="657.8706" gradientTransform="matrix(62.36 0 0 203.2 -38251.1992 -28235.5391)">
			<stop  offset="0" style="stop-color:#808080;stop-opacity:0.25"/>
			<stop  offset="0.54" style="stop-color:#808080;stop-opacity:0.12"/>
			<stop  offset="1" style="stop-color:#808080;stop-opacity:0.1"/>
		</linearGradient>
		<path class="st34" d="M284.9,661.7h62.4v203.2h-62.4V661.7z"/>
		<path class="st3" d="M286.9,663h59.3v200.5h-59.3V663z"/>
		<path class="st11" d="M295.6,666.3h41.9v41.9h-41.9V666.3z"/>
		<path class="st35" d="M295.6,716.9h41.9v41.9h-41.9V716.9z"/>
		<path class="st9" d="M295.6,767.5h41.9v41.9h-41.9V767.5z"/>
	</g>
</g>
<g id="logo-group">
	<g id="title">
		<path id="path560448" class="st36" d="M222.5,142.4c0,12.2,2.9,22.9,8.5,32.5s13.9,17.3,23.9,22.9c10.1,5.4,21.3,8.2,33.5,8.2h1
			h0.5h52.8c3.3,0,6-1,8.1-3c2.3-2.2,3.3-4.8,3.3-7.8v-48.8v-4.2V38.2c0-3.4-1-6.2-3.3-8.4c-2.2-2-5-3.2-8.8-3.2
			c-3.3,0-6.2,1.2-8.5,3.2c-2.3,2.2-3.6,5-3.6,8.4v61.6c-5.5-6.4-12.1-11.4-20.2-15.4c-7.9-3.6-16.5-5.4-25.8-5.4
			c-11.5,0-21.8,2.7-31.1,8.2c-9.4,5.8-16.7,13.2-22,22.9C225.4,119.6,222.5,130.6,222.5,142.4L222.5,142.4z M245.9,142.4
			c0-8,1.9-15.4,5.7-21.7c3.8-6.4,8.8-11.6,15.3-15.4c6.5-3.7,13.6-5.8,21.5-5.8c8.1,0,15.3,2,21.8,5.8c6.5,3.7,11.5,9,15,15.4
			c3.8,6.4,5.5,13.8,5.5,21.7c0,8.2-1.7,15.5-5.5,21.9c-3.6,6.6-8.5,11.9-15,15.5c-6.5,3.6-13.6,5.4-21.8,5.4
			c-7.9,0-15-1.8-21.5-5.4c-6.5-3.6-11.5-9-15.3-15.5C247.8,157.9,245.9,150.5,245.9,142.4z"/>
		<path id="path560450" class="st36" d="M490.7,87.4c-10.1-5.4-21.3-8.2-33.7-8.2c-13,0-24.2,2.7-34.2,8.2
			c-10.1,5.4-17.9,12.8-23.4,22.4c-5.7,9.6-8.4,20.5-8.4,32.9c0,12.3,2.7,23.1,8.4,32.6c5.5,9.6,13.4,17.1,23.4,22.5
			c10.1,5.4,21.3,8,34.2,8c12.7,0,23.9-2.6,34-8s17.7-12.9,23.4-22.5c5.5-9.6,8.4-20.3,8.4-32.6c0-12.3-2.9-23.3-8.5-32.9
			C508.4,100.1,500.8,92.8,490.7,87.4L490.7,87.4z M435,105.1c6.5-3.6,13.9-5.4,22-5.4s15.3,1.8,21.8,5.4c6.5,3.6,11.5,9,15,15.4
			c3.6,6.6,5.5,13.9,5.5,22.1c0,8.2-1.9,15.7-5.5,22.1s-8.5,11.4-15,15.1c-6.5,3.7-13.6,5.4-21.8,5.4s-15.5-1.8-22-5.4
			c-6.5-3.6-11.5-8.7-15-15.1c-3.8-6.4-5.5-13.9-5.5-22.1s1.7-15.5,5.5-22.1C423.5,114.1,428.6,108.7,435,105.1z"/>
		<path id="path560452" class="st36" d="M664.4,99.6c-12.5-13.8-28.3-20.5-47-20.5c-12.5,0-23.7,2.7-33.5,8.2
			c-10.1,5.4-17.7,12.9-23.2,22.5c-5.5,9.6-8.1,20.5-8.1,32.6c0,11.9,2.7,22.9,8.4,32.5s13.6,17.1,23.7,22.5
			c10.1,5.4,21.3,8.2,34,8.2c17.2,0,31.6-5,43-15.4c1.9-1.8,2.9-3.8,2.9-6.2c0-3-1.7-5.8-4.6-8.2c-1.9-1.4-4.1-2-6.2-2
			c-2.9,0-6,1.2-8.8,3.2c-6.7,5.4-15.5,8-26.4,8c-8.4,0-15.8-1.8-22.3-5.4s-11.5-8.7-15-15.1c-3.6-6.4-5.2-13.9-5.2-22.1
			c0-12.8,3.8-23.3,11.5-31c7.6-7.8,17.6-11.9,29.9-11.9c6,0,11.2,1.2,16,3c4.8,1.8,9.2,4.8,13.1,9c2.3,2.7,5.5,4.2,9.4,4.2
			c1.9,0,3.8-0.4,5.5-1.6c3.3-2.2,5.2-5,5.2-8.4C666.8,103.3,665.9,101.5,664.4,99.6L664.4,99.6z"/>
		<path id="path560454" class="st36" d="M777,83.8c-8.1-3.2-17.6-4.8-27.8-4.8c-8.5,0-16.5,1.4-23.9,3.8
			c-7.6,2.7-13.6,6.6-18.2,11.6c-4.8,5.2-6.9,11.6-6.9,18.9c0,18.5,15.3,30.6,46,36.1c11.7,2.2,20.1,4.8,25.1,8
			c4.8,3.2,7.5,7.1,7.5,11.6c0,5-2.7,9-7.6,11.6c-5,3-12,4.3-21.1,4.3c-6.9,0-13.4-1.2-19.4-3.4c-6.2-2.2-10.8-5.2-13.6-8.4
			c-2.9-2.7-6-4.2-9.2-4.2c-2.7,0-5.5,1.2-8.4,3.2c-3.3,2.2-4.8,5.2-4.8,9c0,2.7,1,5.2,3.2,7.1c5.2,5.2,13,9.4,22.5,12.6
			c9.5,3.2,19.6,4.8,30.7,4.8c10.8,0,20.1-1.6,27.8-4.8c7.6-3.2,13.6-7.8,17.7-13.5c3.8-5.8,6-12.2,6-19.2c0-9.4-3.8-17.1-11.1-23.1
			c-7.1-5.9-19.6-10.6-36.8-13.9c-8.5-1.6-15-3.2-19.4-5c-4.6-1.8-7.6-3.6-9.2-5.8c-1.7-2-2.3-4.6-2.3-7.8c0-4.2,2.2-7.5,6.9-9.8
			c4.8-2.2,10.8-3.6,18.2-3.6c6.2,0,11.7,1,16.3,2.2c4.3,1.4,8.5,3.8,12.7,7.4c3.3,3,6.9,4.3,11.2,4.3c2.7,0,4.8-0.4,6.7-1.8
			c2.7-2,4.1-4.3,4.1-7.1c0-2.2-1.3-4.8-3.2-7.4C791.9,91.6,785.2,87,777,83.8L777,83.8z"/>
	</g>
</g>
</svg>
