<?xml version="1.0" encoding="utf-8"?>
<!-- Generator: Adobe Illustrator 22.0.1, SVG Export Plug-In . SVG Version: 6.00 Build 0)  -->
<svg version="1.1"
	 id="svg560440" xmlns:cc="http://creativecommons.org/ns#" xmlns:dc="http://purl.org/dc/elements/1.1/" xmlns:rdf="http://www.w3.org/1999/02/22-rdf-syntax-ns#" xmlns:svg="http://www.w3.org/2000/svg"
	 xmlns="http://www.w3.org/2000/svg" xmlns:xlink="http://www.w3.org/1999/xlink" viewBox="0 0 542 190.2">
<style type="text/css">
	.st0{fill:#041B63;}
</style>
<g id="logo-group">
	<g id="title">
		<path id="path560448" class="st0" d="M12,126.6c0,11.4,2.6,21.5,7.7,30.5c5.1,9,12.4,16.3,21.5,21.5c9,5.1,19.1,7.7,30,7.7h0.9
			h0.4h47.4c3,0,5.4-0.9,7.3-2.8c2.1-2.1,3-4.5,3-7.3v-45.7v-3.9V28.7c0-3.2-0.9-5.8-3-7.9c-1.9-1.9-4.5-3-7.9-3c-3,0-5.6,1.1-7.7,3
			c-2.1,2.1-3.2,4.7-3.2,7.9v57.9c-4.9-6-10.9-10.7-18.2-14.4c-7.1-3.4-14.8-5.1-23.2-5.1c-10.3,0-19.5,2.6-27.9,7.7
			c-8.4,5.4-15,12.4-19.7,21.5C14.6,105.3,12,115.6,12,126.6L12,126.6z M33,126.6c0-7.5,1.7-14.4,5.1-20.4c3.4-6,7.9-10.9,13.7-14.4
			s12.2-5.4,19.3-5.4c7.3,0,13.7,1.9,19.5,5.4s10.3,8.4,13.5,14.4c3.4,6,4.9,12.9,4.9,20.4c0,7.7-1.5,14.6-4.9,20.6
			c-3.2,6.2-7.7,11.2-13.5,14.6s-12.2,5.1-19.5,5.1c-7.1,0-13.5-1.7-19.3-5.1s-10.3-8.4-13.7-14.6C34.7,141.2,33,134.3,33,126.6z"/>
		<path id="path560450" class="st0" d="M252.6,74.9c-9-5.1-19.1-7.7-30.3-7.7c-11.6,0-21.7,2.6-30.7,7.7c-9,5.1-16.1,12-21,21
			c-5.1,9-7.5,19.3-7.5,30.9s2.4,21.7,7.5,30.7c4.9,9,12,16.1,21,21.2s19.1,7.5,30.7,7.5c11.4,0,21.5-2.4,30.5-7.5
			c9-5.1,15.9-12.2,21-21.2c4.9-9,7.5-19.1,7.5-30.7s-2.6-21.9-7.7-30.9C268.4,86.9,261.6,80,252.6,74.9L252.6,74.9z M202.6,91.6
			c5.8-3.4,12.4-5.1,19.7-5.1s13.7,1.7,19.5,5.1s10.3,8.4,13.5,14.4c3.2,6.2,4.9,13.1,4.9,20.8s-1.7,14.8-4.9,20.8
			c-3.2,6-7.7,10.7-13.5,14.2s-12.2,5.1-19.5,5.1s-13.9-1.7-19.7-5.1s-10.3-8.2-13.5-14.2c-3.4-6-4.9-13.1-4.9-20.8
			s1.5-14.6,4.9-20.8C192.3,100,196.8,95,202.6,91.6z"/>
		<path id="path560452" class="st0" d="M408.3,86.4c-11.2-12.9-25.3-19.3-42.1-19.3c-11.2,0-21.2,2.6-30,7.7
			c-9,5.1-15.9,12.2-20.8,21.2s-7.3,19.3-7.3,30.7c0,11.2,2.4,21.5,7.5,30.5c5.1,9,12.2,16.1,21.2,21.2s19.1,7.7,30.5,7.7
			c15.4,0,28.3-4.7,38.6-14.4c1.7-1.7,2.6-3.6,2.6-5.8c0-2.8-1.5-5.4-4.1-7.7c-1.7-1.3-3.6-1.9-5.6-1.9c-2.6,0-5.4,1.1-7.9,3
			c-6,5.1-13.9,7.5-23.6,7.5c-7.5,0-14.2-1.7-20-5.1c-5.8-3.4-10.3-8.2-13.5-14.2c-3.2-6-4.7-13.1-4.7-20.8c0-12,3.4-21.9,10.3-29.2
			s15.7-11.2,26.8-11.2c5.4,0,10.1,1.1,14.4,2.8c4.3,1.7,8.2,4.5,11.8,8.4c2.1,2.6,4.9,3.9,8.4,3.9c1.7,0,3.4-0.4,4.9-1.5
			c3-2.1,4.7-4.7,4.7-7.9C410.4,89.9,409.6,88.2,408.3,86.4L408.3,86.4z"/>
		<path id="path560454" class="st0" d="M509.3,71.6c-7.3-3-15.7-4.5-24.9-4.5c-7.7,0-14.8,1.3-21.5,3.6c-6.9,2.6-12.2,6.2-16.3,10.9
			c-4.3,4.9-6.2,10.9-6.2,17.8c0,17.4,13.7,28.8,41.2,33.9c10.5,2.1,18,4.5,22.5,7.5c4.3,3,6.7,6.7,6.7,10.9c0,4.7-2.4,8.4-6.9,10.9
			c-4.5,2.8-10.7,4.1-18.9,4.1c-6.2,0-12-1.1-17.4-3.2c-5.6-2.1-9.7-4.9-12.2-7.9c-2.6-2.6-5.4-3.9-8.2-3.9c-2.4,0-4.9,1.1-7.5,3
			c-3,2.1-4.3,4.9-4.3,8.4c0,2.6,0.9,4.9,2.8,6.7c4.7,4.9,11.6,8.8,20.2,11.8c8.6,3,17.6,4.5,27.5,4.5c9.7,0,18-1.5,24.9-4.5
			s12.2-7.3,15.9-12.7c3.4-5.4,5.4-11.4,5.4-18c0-8.8-3.4-16.1-9.9-21.7c-6.4-5.6-17.6-9.9-33-13.1c-7.7-1.5-13.5-3-17.4-4.7
			c-4.1-1.7-6.9-3.4-8.2-5.4c-1.5-1.9-2.1-4.3-2.1-7.3c0-3.9,1.9-7.1,6.2-9.2s9.7-3.4,16.3-3.4c5.6,0,10.5,0.9,14.6,2.1
			c3.9,1.3,7.7,3.6,11.4,6.9c3,2.8,6.2,4.1,10.1,4.1c2.4,0,4.3-0.4,6-1.7c2.4-1.9,3.6-4.1,3.6-6.7c0-2.1-1.1-4.5-2.8-6.9
			C522.6,78.9,516.6,74.6,509.3,71.6L509.3,71.6z"/>
	</g>
</g>
</svg>
